<svg width="28" height="32" viewBox="0 0 28 32" fill="none" xmlns="http://www.w3.org/2000/svg">
<path d="M10.581 2.41309C8.74804 3.36109 7.24804 4.16309 7.24804 4.19609C7.24804 4.28009 11.649 6.49309 11.805 6.48709C11.876 6.48509 12.392 6.24908 12.95 5.96409L13.966 5.44509L15.077 6.01109L16.186 6.57808L18.003 5.76709C20.742 4.54509 21.026 4.41209 20.982 4.36709C20.923 4.30709 19.94 3.78309 17.276 2.39109C15.988 1.71809 14.737 1.05709 14.497 0.924085C14.257 0.791085 14.029 0.683086 13.989 0.685086C13.949 0.687086 12.416 1.46509 10.581 2.41309ZM2.54004 6.54709L0.631045 7.52608V11.8221C0.631045 14.1831 0.656045 16.1181 0.686045 16.1181C0.716045 16.1181 1.65504 15.7131 2.77304 15.2191L4.80404 14.3211V9.79409L5.79704 10.3311L8.09304 11.5681L9.39605 12.2681L9.97605 12.0081C10.34 11.8441 10.703 11.6791 11.065 11.5121C11.346 11.3821 12.032 11.0751 12.593 10.8291C13.152 10.5831 13.671 10.3351 13.744 10.2791C13.842 10.2041 12.651 9.55109 9.34105 7.86309C6.84605 6.59109 4.72405 5.55509 4.62605 5.55909C4.52805 5.56509 3.58904 6.00909 2.54004 6.54709ZM21.325 6.82209C20.025 7.40509 18.961 7.90509 18.959 7.93309C18.959 7.96109 19.667 8.38009 20.534 8.86209C21.402 9.34509 22.112 9.76609 22.112 9.79709C22.112 9.82909 21.344 10.1981 20.406 10.6181C18.649 11.4041 16.893 12.1911 15.138 12.9791L8.57104 15.9261C6.91904 16.6671 5.43105 17.3351 5.26305 17.4111C1.88905 18.9271 0.961045 19.3471 0.834045 19.4201C0.706045 19.4931 0.677045 19.9151 0.655045 22.0351L0.627045 24.5631L2.33504 25.4271L4.04004 26.2901L6.40804 25.2301C7.71004 24.6461 8.77505 24.1391 8.77505 24.1011C8.77505 24.0641 8.53505 23.9081 8.24005 23.7561C7.78605 23.5131 7.33604 23.2621 6.89204 23.0031C6.44304 22.7421 5.99605 22.5021 5.89905 22.4701C5.80105 22.4381 5.72205 22.3821 5.72305 22.3461C5.72505 22.3101 6.76705 21.8191 8.04004 21.2541C10.85 20.0061 13.657 18.7511 16.461 17.4901L21.908 15.0471C23.504 14.3321 25.359 13.4971 26.031 13.1921L27.252 12.6361L27.28 10.0791L27.308 7.52109L25.576 6.64008C24.623 6.15508 23.809 5.75809 23.767 5.76009C23.724 5.76109 22.626 6.23909 21.325 6.82209ZM26.789 16.0471C26.533 16.1711 26.029 16.4031 25.669 16.5621C25.308 16.7211 24.623 17.0291 24.147 17.2441L23.282 17.6361L23.263 19.8811C23.252 21.1161 23.205 22.1201 23.161 22.1141C23.058 22.0981 21.436 21.2731 19.806 20.4061C18.629 19.7801 18.555 19.7551 18.279 19.8911C18.119 19.9691 17.164 20.3941 16.156 20.8361C15.148 21.2781 14.29 21.6681 14.25 21.7031C14.21 21.7381 16.238 22.8301 18.758 24.1291L23.338 26.4901L25.295 25.4851C26.372 24.9321 27.287 24.4281 27.329 24.3651C27.424 24.2221 27.416 15.8031 27.32 15.8151C27.284 15.8191 27.044 15.9241 26.789 16.0471ZM15.952 25.9301L14.934 26.3651C13.909 26.8051 14.11 26.8191 12.892 26.2171C12.08 25.8161 11.73 25.6921 11.577 25.7521C11.464 25.7971 10.484 26.2351 9.39905 26.7251C8.31405 27.2161 7.38904 27.6171 7.34304 27.6171C6.88804 27.6171 7.64505 28.0651 10.564 29.5271L13.988 31.2411L15.428 30.5351C16.22 30.1461 17.818 29.3691 18.979 28.8071C20.14 28.2451 21.075 27.7701 21.057 27.7521C21.04 27.7351 20.067 27.2391 18.896 26.6501L16.767 25.5811L15.952 25.9301Z" fill="#05A3C9"/>
</svg>
