<svg width="29" height="25" viewBox="0 0 29 25" fill="none" xmlns="http://www.w3.org/2000/svg">
<path d="M28.137 3.17096C28.197 2.80796 28.159 2.43596 28.025 2.09296C27.892 1.74996 27.67 1.44896 27.381 1.22196C27.092 0.993955 26.747 0.847956 26.383 0.798956C26.019 0.749956 25.647 0.798955 25.309 0.941955L1.86299 10.814C0.228987 11.502 0.144986 13.866 1.86299 14.579C3.56399 15.288 5.28999 15.937 7.03699 16.523C8.63899 17.052 10.385 17.542 11.785 17.68C12.168 18.138 12.649 18.58 13.14 18.983C13.89 19.6 14.793 20.235 15.725 20.843C17.592 22.064 19.663 23.231 21.059 23.99C22.728 24.895 24.208 25.309 25.025 22.034L28.137 3.17096ZM4.49199 12.683L25.227 3.95196L22.324 21.556C20.954 20.812 18.981 19.697 17.223 18.548C16.413 18.028 15.631 17.466 14.88 16.863C14.679 16.699 14.485 16.528 14.296 16.35L19.727 10.921C19.984 10.664 20.129 10.315 20.129 9.95096C20.129 9.58796 19.985 9.23896 19.727 8.98096C19.47 8.72396 19.122 8.57996 18.758 8.57896C18.394 8.57896 18.045 8.72396 17.788 8.98096L11.841 14.927C10.835 14.798 9.43399 14.425 7.89599 13.918C6.74999 13.537 5.61599 13.124 4.49199 12.681V12.683Z" fill="white"/>
</svg>
